<mxfile host="app.diagrams.net" agent="Mozilla/5.0 (Macintosh; Intel Mac OS X 10_15_7) AppleWebKit/537.36 (KHTML, like Gecko) Chrome/131.0.0.0 Safari/537.36" version="25.0.3">
  <diagram name="Page-1" id="5f0bae14-7c28-e335-631c-24af17079c00">
    <mxGraphModel dx="1186" dy="621" grid="1" gridSize="10" guides="1" tooltips="1" connect="1" arrows="1" fold="1" page="1" pageScale="1" pageWidth="1100" pageHeight="850" background="none" math="0" shadow="0">
      <root>
        <mxCell id="0" />
        <mxCell id="1" parent="0" />
        <mxCell id="lPfEheAolFujwy3ape2r-7" value="" style="verticalLabelPosition=bottom;verticalAlign=top;html=1;shape=mxgraph.basic.rect;fillColor2=none;strokeWidth=1;size=20;indent=5;" vertex="1" parent="1">
          <mxGeometry x="20" y="40" width="1340" height="280" as="geometry" />
        </mxCell>
        <mxCell id="39150e848f15840c-1" value="FRONTEND APPLICATIONS" style="verticalAlign=top;align=left;spacingTop=8;spacingLeft=2;spacingRight=12;shape=cube;size=10;direction=south;fontStyle=4;html=1;rounded=0;shadow=0;comic=0;labelBackgroundColor=none;strokeWidth=1;fontFamily=Verdana;fontSize=12" parent="1" vertex="1">
          <mxGeometry x="169" y="70" width="330" height="220" as="geometry" />
        </mxCell>
        <mxCell id="39150e848f15840c-2" value="BACKEND APPLICATION" style="verticalAlign=top;align=left;spacingTop=8;spacingLeft=2;spacingRight=12;shape=cube;size=10;direction=south;fontStyle=4;html=1;rounded=0;shadow=0;comic=0;labelBackgroundColor=none;strokeWidth=1;fontFamily=Verdana;fontSize=12" parent="1" vertex="1">
          <mxGeometry x="629" y="70" width="330" height="220" as="geometry" />
        </mxCell>
        <mxCell id="39150e848f15840c-3" value="BLOCKCHAIN" style="verticalAlign=top;align=left;spacingTop=8;spacingLeft=2;spacingRight=12;shape=cube;size=10;direction=south;fontStyle=4;html=1;rounded=0;shadow=0;comic=0;labelBackgroundColor=none;strokeWidth=1;fontFamily=Verdana;fontSize=12" parent="1" vertex="1">
          <mxGeometry x="1069" y="65" width="265" height="225" as="geometry" />
        </mxCell>
        <mxCell id="39150e848f15840c-5" value="&lt;b&gt;Mobile App&lt;br&gt;&lt;/b&gt;&lt;br&gt;- React Native&lt;br&gt;- QR Code&lt;div&gt;- Typescript&lt;/div&gt;" style="shape=component;align=left;spacingLeft=36;rounded=0;shadow=0;comic=0;labelBackgroundColor=none;strokeWidth=1;fontFamily=Verdana;fontSize=12;html=1;" parent="1" vertex="1">
          <mxGeometry x="179" y="120" width="130" height="140" as="geometry" />
        </mxCell>
        <mxCell id="39150e848f15840c-7" value="&lt;b&gt;API Server&lt;/b&gt;&lt;div&gt;&lt;br&gt;&lt;/div&gt;&lt;div&gt;- NestJS&lt;/div&gt;&lt;div&gt;- SQL Database&lt;/div&gt;&lt;div&gt;- JWT token&lt;br&gt;- Typescript&lt;/div&gt;" style="shape=component;align=left;spacingLeft=36;rounded=0;shadow=0;comic=0;labelBackgroundColor=none;strokeWidth=1;fontFamily=Verdana;fontSize=12;html=1;" parent="1" vertex="1">
          <mxGeometry x="689" y="117.5" width="180" height="125" as="geometry" />
        </mxCell>
        <mxCell id="39150e848f15840c-10" value="&lt;b&gt;Hyperledger Fabric&lt;/b&gt;&lt;div&gt;&lt;br&gt;- Fabric SDK&lt;br&gt;- Node JS&lt;/div&gt;&lt;div&gt;- Typescript / Go / Java&lt;/div&gt;" style="shape=component;align=left;spacingLeft=36;rounded=0;shadow=0;comic=0;labelBackgroundColor=none;strokeWidth=1;fontFamily=Verdana;fontSize=12;html=1;" parent="1" vertex="1">
          <mxGeometry x="1094" y="115" width="200" height="125" as="geometry" />
        </mxCell>
        <mxCell id="ugw1oBv3RRs2dKeh1vcj-1" value="&lt;b&gt;Web App&lt;br&gt;&lt;/b&gt;&lt;br&gt;- Next JS&lt;div&gt;- React JS&lt;br&gt;&lt;/div&gt;&lt;div&gt;- Typescript&lt;/div&gt;" style="shape=component;align=left;spacingLeft=36;rounded=0;shadow=0;comic=0;labelBackgroundColor=none;strokeWidth=1;fontFamily=Verdana;fontSize=12;html=1;" parent="1" vertex="1">
          <mxGeometry x="329" y="120" width="150" height="140" as="geometry" />
        </mxCell>
        <mxCell id="ugw1oBv3RRs2dKeh1vcj-5" value="" style="shape=flexArrow;endArrow=classic;startArrow=classic;html=1;rounded=0;entryX=1.018;entryY=0.533;entryDx=0;entryDy=0;entryPerimeter=0;" parent="1" edge="1">
          <mxGeometry width="100" height="100" relative="1" as="geometry">
            <mxPoint x="1069" y="179.5" as="sourcePoint" />
            <mxPoint x="959.0000000000001" y="179.50000000000006" as="targetPoint" />
          </mxGeometry>
        </mxCell>
        <mxCell id="ugw1oBv3RRs2dKeh1vcj-7" value="" style="shape=flexArrow;endArrow=classic;startArrow=classic;html=1;rounded=0;" parent="1" edge="1">
          <mxGeometry width="100" height="100" relative="1" as="geometry">
            <mxPoint x="499" y="179.5" as="sourcePoint" />
            <mxPoint x="629" y="179.5" as="targetPoint" />
          </mxGeometry>
        </mxCell>
        <mxCell id="lPfEheAolFujwy3ape2r-6" value="" style="edgeStyle=orthogonalEdgeStyle;rounded=0;orthogonalLoop=1;jettySize=auto;html=1;" edge="1" parent="1" source="lPfEheAolFujwy3ape2r-1" target="39150e848f15840c-5">
          <mxGeometry relative="1" as="geometry" />
        </mxCell>
        <mxCell id="lPfEheAolFujwy3ape2r-1" value="Actor" style="shape=umlActor;verticalLabelPosition=bottom;verticalAlign=top;html=1;outlineConnect=0;" vertex="1" parent="1">
          <mxGeometry x="52" y="130" width="30" height="60" as="geometry" />
        </mxCell>
      </root>
    </mxGraphModel>
  </diagram>
</mxfile>
